<svg xmlns="http://www.w3.org/2000/svg" width="36" height="26" viewBox="0 0 36 26">
    <g fill="#4C97FF" fill-rule="evenodd">
        <path d="M.53 19h4.94c.293 0 .53-.24.53-.54V9.538A.533.533 0 0 0 5.47 9H.53C.236 9 0 9.24 0 9.538v8.922c0 .3.237.54.53.54M18.149 24.909a.55.55 0 0 0 .306.091c.088 0 .175-.02.256-.061a.53.53 0 0 0 .289-.47V.532c0-.21-.126-.4-.322-.484a.555.555 0 0 0-.586.088l-9.91 8.607A.524.524 0 0 0 8 9.138v8.793c0 .176.09.34.24.44l9.909 6.538zM36 14.001c0-4.384-1.815-8.483-5.111-11.541a1.761 1.761 0 0 0-2.407.032 1.576 1.576 0 0 0 .035 2.299c2.63 2.443 4.079 5.713 4.079 9.21 0 3.497-1.449 6.768-4.079 9.208A1.579 1.579 0 0 0 28 24.376c0 .425.172.827.482 1.133.333.327.777.491 1.22.491.428 0 .856-.153 1.187-.457C34.185 22.483 36 18.383 36 14"/>
        <path d="M23.608 22c.417 0 .809-.156 1.11-.44C26.835 19.567 28 16.882 28 14c0-2.883-1.165-5.567-3.282-7.562A1.637 1.637 0 0 0 23.571 6c-.43.01-.83.185-1.126.491a1.56 1.56 0 0 0-.444 1.13c.01.424.186.82.496 1.111a7.18 7.18 0 0 1 2.288 5.269 7.178 7.178 0 0 1-2.287 5.268 1.571 1.571 0 0 0-.052 2.242A1.61 1.61 0 0 0 23.57 22h.037z"/>
    </g>
</svg>
