<svg xmlns="http://www.w3.org/2000/svg" xmlns:xlink="http://www.w3.org/1999/xlink" width="38" height="39" viewBox="0 0 38 39">
    <defs>
        <path id="a" d="M.125.75H17.25v16.546H.125z"/>
        <path id="c" d="M0 .75h17.125v16.546H0z"/>
    </defs>
    <g fill="none" fill-rule="evenodd">
        <g transform="rotate(180 9 9.125)">
            <mask id="b" fill="#fff">
                <use xlink:href="#a"/>
            </mask>
            <path fill="#4C97FF" d="M.125 15.796V2.25a1.5 1.5 0 0 1 1.5-1.5H15.75a1.5 1.5 0 1 1 0 3H3.125v12.046a1.5 1.5 0 1 1-3 0z" mask="url(#b)"/>
        </g>
        <g transform="rotate(180 19 9.125)">
            <mask id="d" fill="#fff">
                <use xlink:href="#c"/>
            </mask>
            <path fill="#4C97FF" d="M15.625 17.296a1.5 1.5 0 0 1-1.5-1.5V3.75H1.5a1.5 1.5 0 1 1 0-3h14.125a1.5 1.5 0 0 1 1.5 1.5v13.546a1.5 1.5 0 0 1-1.5 1.5" mask="url(#d)"/>
        </g>
        <path fill="#4C97FF" d="M22.375 21.705H36.5a1.5 1.5 0 1 1 0 3H23.875V36.75a1.5 1.5 0 1 1-3 0V23.205a1.5 1.5 0 0 1 1.5-1.5M2.5 21.705h14.125a1.5 1.5 0 0 1 1.5 1.5V36.75a1.5 1.5 0 1 1-3 0V24.705H2.5a1.5 1.5 0 1 1 0-3"/>
    </g>
</svg>
